<?xml version="1.0" standalone="no"?><!DOCTYPE svg PUBLIC "-//W3C//DTD SVG 1.1//EN" "http://www.w3.org/Graphics/SVG/1.1/DTD/svg11.dtd"><svg t="1720677869969" class="icon" viewBox="0 0 1024 1024" version="1.1" xmlns="http://www.w3.org/2000/svg" p-id="1483" xmlns:xlink="http://www.w3.org/1999/xlink" width="200" height="200"><path d="M379.757958 287.695238h589.385143A30.47619 30.47619 0 0 0 999.619291 257.219048v-202.361905A30.47619 30.47619 0 0 0 969.143101 24.380952H379.757958a30.47619 30.47619 0 0 0-30.47619 30.476191v70.704762H115.809768A90.794667 90.794667 0 0 0 24.381196 215.771429V451.047619a90.794667 90.794667 0 0 0 91.428572 91.428571H441.295482l73.728 71.92381a13.507048 13.507048 0 0 0 19.504762 0l73.776762-71.92381h299.885714a29.257143 29.257143 0 0 1 30.47619 30.476191v237.129143a29.257143 29.257143 0 0 1-30.47619 29.257143h-233.423238v-72.557715a30.47619 30.47619 0 0 0-30.476191-30.47619H54.857387a30.47619 30.47619 0 0 0-30.476191 30.47619v202.361905a30.47619 30.47619 0 0 0 30.476191 30.476191h589.433904a30.47619 30.47619 0 0 0 30.476191-30.476191v-70.704762h233.423238A90.843429 90.843429 0 0 0 999.619291 808.228571V572.952381a90.794667 90.794667 0 0 0-91.428571-91.428571h-299.885714L534.577006 409.6a13.409524 13.409524 0 0 0-19.504762 0L441.295482 481.52381H115.809768a29.257143 29.257143 0 0 1-30.476191-30.476191V215.771429a29.257143 29.257143 0 0 1 30.476191-29.257143h233.472v70.704762a30.47619 30.47619 0 0 0 30.47619 30.47619z" fill="#d81e06" p-id="1484"></path></svg>