<?xml version="1.0" standalone="no"?><!DOCTYPE svg PUBLIC "-//W3C//DTD SVG 1.1//EN" "http://www.w3.org/Graphics/SVG/1.1/DTD/svg11.dtd"><svg t="1720958998073" class="icon" viewBox="0 0 1024 1024" version="1.1" xmlns="http://www.w3.org/2000/svg" p-id="4285" xmlns:xlink="http://www.w3.org/1999/xlink" width="200" height="200"><path d="M682.666667 21.333333A106.666667 106.666667 0 0 1 789.333333 128v21.333333h21.333334a106.666667 106.666667 0 0 1 106.453333 99.669334L917.333333 256v640a106.666667 106.666667 0 0 1-106.666666 106.666667H213.333333A106.666667 106.666667 0 0 1 106.666667 896V128A106.666667 106.666667 0 0 1 213.333333 21.333333z m128 170.666667H149.333333V896A64 64 0 0 0 213.333333 960h597.333334a64 64 0 0 0 64-64V256A64 64 0 0 0 810.666667 192zM347.392 235.221333L590.506667 339.2l64.426666-99.285333 91.861334 110.08 53.546666-10.794667-53.546666 33.578667-90.922667-76.458667-46.933333 76.458667-159.402667-22.741334-2.133333 137.173334-116.394667 65.066666L384 640l-26.752 110.677333 144.341333 9.770667 107.306667 87.637333c85.674667-47.104 136.277333-75.264 151.808-84.48l1.792-1.109333-1.28 1.237333c-15.36 14.421333-72.704 75.733333-171.989333 183.893334l-107.776-151.893334-221.738667 31.573334L341.333333 640l-165.12-131.626667 220.245334-49.109333-49.066667-224z m246.570667 356.736l36.181333 26.666667-65.28 77.013333 105.642667 40.96-9.941334 38.058667L426.666667 689.28l10.026666-44.373333 101.12 44.373333 4.010667-3.797333-17.322667-14.08 69.461334-79.445334z m-128.853334 5.12l75.349334 4.394667-15.36 38.058667-65.450667-8.789334 5.504-33.706666zM665.472 426.666667l33.408 20.224-23.338667 38.229333 31.061334 13.226667 20.096-35.072 28.8 24.917333-20.992 35.413333 55.253333 35.669334-21.376 32.682666-53.162667-35.626666-24.405333 40.533333-30.72-21.376 21.077333-40.064-28.842666-15.658667-22.144 36.565334-33.194667-20.906667 23.466667-37.12-41.045334-27.861333 17.578667-32.64 43.434667 25.472 25.045333-36.608z m-186.666667 120.661333l80.256 2.816-13.824 28.885333h-74.026666l7.594666-31.701333zM682.666667 64H213.333333A64 64 0 0 0 149.333333 128v21.290667h597.333334V128a64 64 0 0 0-57.856-63.701333L682.666667 64z" fill="#d4237a" p-id="4286"></path></svg>