<?xml version="1.0" standalone="no"?><!DOCTYPE svg PUBLIC "-//W3C//DTD SVG 1.1//EN" "http://www.w3.org/Graphics/SVG/1.1/DTD/svg11.dtd"><svg t="1720677985634" class="icon" viewBox="0 0 2891 1024" version="1.1" xmlns="http://www.w3.org/2000/svg" p-id="2564" xmlns:xlink="http://www.w3.org/1999/xlink" width="564.6484375" height="200"><path d="M25.419294 187.753412h393.396706a2887.860706 2887.860706 0 0 0-39.514353-118.603294l143.962353-29.153883c23.552 62.464 41.441882 111.676235 53.669647 147.757177h358.580706v127.09647h-139.745882c-47.405176 142.396235-115.651765 262.746353-204.739765 360.929883 96.677647 66.861176 215.883294 117.820235 357.677176 152.937411-52.103529 63.367529-86.618353 109.507765-103.54447 138.360471-143.36-48.007529-265.035294-111.435294-365.146353-190.162823-100.713412 75.896471-224.316235 141.191529-370.868706 195.764705A1470.162824 1470.162824 0 0 0 15.058824 836.246588c140.890353-43.971765 258.831059-98.183529 353.882352-162.816-90.352941-100.713412-154.383059-220.280471-192.030117-358.580706H25.419294v-127.09647z m610.364235 127.09647H322.379294c32.286118 102.881882 84.690824 191.789176 157.153882 266.842353a645.842824 645.842824 0 0 0 156.250353-266.842353z m380.687059 484.653177h396.227765v-159.984941h-278.588235v-127.096471h278.588235V356.291765h-227.749647a1668.096 1668.096 0 0 1-138.360471 226.846117 4769.189647 4769.189647 0 0 0-64.030117-161.91247c64.632471-85.955765 119.567059-200.463059 164.743529-343.521883l140.227765 34.816a2141.967059 2141.967059 0 0 1-44.212706 116.736h169.381647V42.767059h141.191529v186.368h312.440471v127.09647h-312.440471v156.190118h275.757177v127.096471h-275.757177v159.924706h346.352942v130.831058H1016.470588v-130.831058z m966.595765 170.405647V79.510588h850.823529v889.434353H2703.962353v-36.743529h-591.088941v37.707294h-129.867294zM2661.677176 244.254118v77.101176c-32.948706 44.574118-76.559059 84.148706-130.831058 118.66353 50.778353 13.793882 108.544 24.636235 173.17647 32.466823V193.355294h-286.117647c-11.625412 17.227294-24.033882 34.213647-37.225412 50.838588h280.937412z m-373.699764-50.838589h-175.043765v163.237647c78.727529-51.742118 137.095529-106.134588 175.043765-163.237647zM2413.628235 397.552941c43.971765-20.359529 78.607059-43.248941 104.026353-68.668235h-202.390588c25.419294 26.021647 58.247529 48.911059 98.364235 68.668235z m-238.531764 32.045177c-16.323765-17.889882-37.044706-37.948235-62.162824-60.235294V481.882353a1589.609412 1589.609412 0 0 0 191.066353-43.309177 482.364235 482.364235 0 0 1-63.548235-56.44047c-20.660706 16.263529-42.465882 32.165647-65.41553 47.525647z m3.734588 217.449411c165.647059 21.925647 321.536 45.176471 467.787294 69.571765l-26.383059 101.677177h83.727059V483.689412c-13.793882 22.889412-30.418824 51.320471-49.874824 85.172706-93.123765-15.661176-173.778824-38.430118-241.844705-68.246589-34.816 14.155294-72.282353 26.985412-112.459295 38.610824 104.146824 13.191529 205.944471 28.069647 305.392942 44.694588l-18.853647 89.449412a9279.668706 9279.668706 0 0 0-348.16-53.609412l14.516705-67.824941c-30.418824 7.529412-62.223059 14.456471-95.533176 20.720941a674.635294 674.635294 0 0 0-44.212706-82.823529v328.463059h502.603294c-127.698824-26.021647-282.021647-50.176-463.088941-72.463059l26.383059-98.785883z" fill="#1F1F1F" p-id="2565"></path></svg>